<svg width="920" height="819" viewBox="0 0 920 819" fill="none" xmlns="http://www.w3.org/2000/svg">
<path d="M452.427 801.556C451.92 801.556 451.414 801.463 450.953 801.276L446.119 799.364C367.024 767.742 304.457 728.751 254.919 680.152C215.233 641.254 184.755 596.899 162.15 545.129C173.291 556.975 185.446 568.822 198.475 580.669L199.626 581.648C207.084 587.665 225.638 602.403 246.448 618.867C255.793 630.9 266.981 643.353 278.905 655.06C322.55 697.875 377.245 732.762 446.165 761.679C448.191 762.518 450.309 762.938 452.519 762.938C454.729 762.938 456.8 762.518 458.78 761.679C513.06 739.058 558.04 713.08 596.207 682.391C600.35 682.624 604.586 682.717 608.776 682.717C623.462 682.717 638.103 681.411 652.421 678.799C602.744 727.911 539.21 767.462 458.734 799.364L453.9 801.276C453.44 801.463 452.933 801.556 452.427 801.556Z" fill="white" fill-opacity="0.12"/>
<path d="M795.556 269.207C785.474 257.36 774.286 246.493 762.178 236.792C762.915 211.979 763.375 186.84 763.835 160.769L764.02 151.534L759.462 151.161C651.96 142.299 547.774 105.687 458.136 45.1945C456.846 44.3083 455.373 43.8886 453.854 43.8886C452.335 43.8886 450.861 44.355 449.572 45.1945C359.105 106.2 253.998 142.905 145.53 151.347L140.834 151.72L141.064 158.203C141.386 176.813 141.755 195.282 142.215 213.565C129.646 222.054 118.367 231.941 108.56 243.088C107.64 215.664 107.133 188.146 106.581 159.23L105.89 122.244C105.89 120.192 107.502 118.419 109.527 118.326L122.648 117.766C238.345 112.683 349.437 74.2979 443.909 6.76305L453.348 0.046875L463.798 6.76305C557.534 73.7382 667.706 112.076 782.389 117.627L795.464 118.233C797.536 118.326 799.148 120.052 799.101 122.151L798.365 162.728C797.766 197.661 797.122 233.667 795.602 269.16L795.556 269.207Z" fill="white" fill-opacity="0.12"/>
<path d="M309.429 265.848C302.753 260.205 295.525 255.448 287.883 251.716V221.727C302.109 227.044 315.23 234.693 326.924 244.627L329.963 247.239L333.093 244.674C350.864 230.262 380.79 213.052 422.731 213.052C425.31 213.052 427.888 213.145 430.558 213.238C444.278 213.985 458.78 217.576 473.006 223.732C463.982 229.796 455.235 236.512 446.948 243.788C440.871 242.155 435.024 241.176 429.453 240.849C427.151 240.709 424.849 240.663 422.685 240.663C395.384 240.663 370.983 249.244 350.082 266.175L329.548 282.872L309.337 265.755L309.429 265.848Z" fill="white" fill-opacity="0.12"/>
<path d="M330.239 650.676C295.755 626.796 142.767 516.726 111 421.813C96.1756 377.458 94.4261 341.919 105.568 310.017C119.057 271.445 150.087 239.404 189.267 223.173V253.675C184.11 256.381 179.184 259.459 174.58 262.77C160.262 273.031 141.064 291.174 131.257 319.251C121.912 345.976 123.523 376.106 136.23 411.226C172.37 511.315 321.445 608.793 327.798 612.897L330.699 614.763L333.415 612.664C333.415 612.664 376.646 579.037 397.824 562.386C402.52 570.222 407.722 577.917 413.293 585.24C388.708 604.735 357.264 629.501 340.137 643.027L330.331 650.769L330.239 650.676Z" fill="white" fill-opacity="0.12"/>
<path d="M822.812 390.051C803.061 289.449 715.448 213.285 610.387 213.146C491.008 213.146 393.865 311.603 393.819 432.68C393.727 553.245 490.225 651.516 608.914 651.702H609.236C668.442 651.702 722.262 627.823 761.579 589.158C773.273 577.638 783.678 564.812 792.61 550.913C792.61 550.913 792.625 550.913 792.656 550.913C795.925 545.736 799.055 540.419 801.91 534.916C806.376 526.52 810.289 517.752 813.604 508.704C818.668 494.852 822.397 480.393 824.607 465.422C824.837 464.069 825.021 462.67 825.206 461.317V461.131C826.08 454.648 826.587 448.118 826.817 441.542C826.817 441.542 826.863 441.449 826.817 441.402C826.955 438.697 827.001 436.039 827.001 433.333C827.001 418.548 825.574 404.09 822.812 390.098V390.051ZM639.852 615.323C629.677 617.235 619.319 618.215 609.098 618.215C583.27 618.215 557.166 612.012 531.476 599.792C529.588 598.859 527.839 597.74 525.629 596.341L517.204 591.117L521.117 586.686C522.13 585.567 523.005 584.447 523.879 583.421C525.905 580.949 527.793 578.617 530.279 576.658C536.126 572.134 542.203 567.983 548.28 563.786L551.181 561.827C555.646 558.749 557.304 555.764 556.797 551.566C555.831 543.124 561.632 538.134 563.519 536.501C569.504 531.371 572.727 524.561 574.246 513.554C572.589 513.181 570.701 512.995 568.261 512.995C566.972 512.995 561.401 513.181 559.974 513.181C556.613 513.181 552.194 512.948 547.682 511.129L544.827 510.056L544.137 502.454C543.814 498.956 543.446 495.458 543.308 491.96C543.216 490.467 543.078 487.389 542.802 486.876C542.479 486.503 541.052 485.99 538.566 485.29C530.325 482.912 524.846 477.502 522.222 469.246C521.9 468.127 521.439 467.054 520.979 466.075L458.504 469.06L458.366 469.899C459.793 470.832 461.082 471.718 462.463 472.418C471.441 476.942 478.163 483.938 482.398 493.219L488.752 507.025C492.02 514.114 495.289 521.203 498.466 528.293C500.952 533.889 504.359 538.18 509.147 541.772C512.462 544.244 515.638 549.514 515.224 553.991C514.672 559.915 513.475 565.838 512.37 571.481L509.976 584.028L504.451 581.789C475.63 570.035 437.142 510.756 430.972 468.547L430.466 465.235L433.32 463.556C435.116 462.483 437.096 461.504 439.029 460.571C442.574 458.846 445.935 457.213 447.547 455.068C449.25 452.736 449.895 448.865 450.631 444.807C450.999 442.568 451.414 440.329 451.966 438.184L453.394 432.54L468.771 439.443C471.027 438.277 473.236 437.158 475.4 436.038C481.385 432.96 487.002 430.069 492.343 426.804C495.565 424.798 498.972 423.865 502.747 423.865C506.523 423.865 510.114 424.845 513.521 425.824C515.731 426.431 517.848 427.037 520.242 427.317V427.13C521.255 424.985 522.268 422.746 522.959 420.461C525.629 411.692 530.877 406.515 538.98 404.743C539.257 404.743 539.625 404.556 539.993 404.323C539.072 402.924 538.244 401.618 537.461 400.312L533.133 393.27C529.22 386.973 525.353 380.677 521.946 374.147C519.137 368.783 517.664 368.783 516.881 368.783C515.73 368.783 514.073 369.297 510.988 370.789C504.589 373.961 502.379 375.5 503.07 380.444L503.438 383.382L501.044 385.108C495.934 388.792 490.547 390.658 484.93 390.658C480.465 390.658 475.953 389.492 471.119 387.16C457.491 380.49 458.274 367.804 458.78 359.176L458.872 357.683L472.177 339.773L476.321 337.395L468.218 317.853L469.783 315.614C499.709 272.705 552.101 247.099 609.973 247.099C662.227 247.099 710.936 268.787 743.532 306.659L746.617 310.157C746.617 310.157 737.501 319.065 734.693 321.864C728.063 328.44 721.249 335.249 714.021 341.499C706.931 347.656 697.677 350.78 686.536 350.78C686.536 350.78 679.123 350.687 676.039 350.687H664.115C664.115 352.833 664.069 354.745 664.207 356.61C664.437 360.621 663.424 366.218 657.209 370.323C655.137 371.675 653.157 373.074 651.132 374.474C646.574 377.645 641.832 380.957 636.675 383.615C632.117 385.947 627.145 386.973 622.357 387.953L617.707 388.932C610.157 390.564 609.973 390.564 609.328 398.493C609.052 402.271 607.348 405.676 605.875 408.661C605.277 409.78 604.724 410.899 604.264 412.019L602.284 416.823L618.674 415.05C620.147 409.36 622.311 401.851 631.611 398.633L634.143 397.794L642.983 405.023C643.903 403.624 644.778 402.271 645.745 400.919C650.027 394.762 655.229 393.456 658.866 393.456C662.503 393.456 666.371 394.762 670.33 397.374L672.54 398.866V423.586C672.54 423.586 672.77 423.586 672.862 423.586C673.553 423.586 674.658 423.166 675.486 422.793L703.662 410.666L715.356 405.722L727.787 430.069L696.02 441.029C697.125 442.848 698.414 444.667 699.703 446.533C701.913 449.704 704.169 452.969 706.01 456.513C712.226 457.353 716.277 461.178 719.868 464.629C720.467 465.235 721.111 465.842 721.756 466.448L733.68 454.928L731.7 443.361L736.626 442.615C740.862 441.962 745.788 441.355 750.714 441.355C759.876 441.355 767.242 443.548 773.872 448.258L777.739 452.782L776.22 454.181L776.957 455.441C779.074 459.032 781.146 462.623 783.31 466.168C786.809 471.905 787.776 477.828 786.21 483.891L785.612 486.316C784.645 490.094 783.678 493.965 782.113 497.743C778.292 507.025 774.056 515.793 769.406 524.002C765.124 531.604 760.475 538.74 755.456 545.456C727.695 582.628 689.022 606.042 639.852 615.276V615.323Z" fill="white" fill-opacity="0.12"/>
<path d="M256.024 517.938C241.061 506.558 227.756 494.105 221.126 487.669V348.915H169.792V313.608H221.126V214.171C224.119 213.752 227.065 213.472 229.92 213.332C232.774 213.192 235.582 213.099 238.345 213.099C244.376 213.099 250.269 213.425 256.024 214.125V313.608H308.324V348.915H256.024V517.938Z" fill="white" fill-opacity="0.12"/>
<path d="M328.85 505.24C327.61 505.24 326.45 504.98 325.37 504.46C324.29 503.94 323.41 503.19 322.73 502.21L324.47 500.17C325.05 500.97 325.7 501.59 326.42 502.03C327.16 502.45 327.97 502.66 328.85 502.66C331.25 502.66 332.45 501.24 332.45 498.4V486.61H324.86V484H335.42V498.25C335.42 500.59 334.86 502.34 333.74 503.5C332.64 504.66 331.01 505.24 328.85 505.24ZM347.021 505.18C345.421 505.18 344.001 504.83 342.761 504.13C341.521 503.43 340.541 502.47 339.821 501.25C339.101 500.01 338.741 498.61 338.741 497.05C338.741 495.47 339.101 494.07 339.821 492.85C340.541 491.63 341.521 490.68 342.761 490C344.001 489.3 345.421 488.95 347.021 488.95C348.601 488.95 350.011 489.3 351.251 490C352.511 490.68 353.491 491.63 354.191 492.85C354.911 494.05 355.271 495.45 355.271 497.05C355.271 498.63 354.911 500.03 354.191 501.25C353.491 502.47 352.511 503.43 351.251 504.13C350.011 504.83 348.601 505.18 347.021 505.18ZM347.021 502.66C348.041 502.66 348.951 502.43 349.751 501.97C350.571 501.51 351.211 500.86 351.671 500.02C352.131 499.16 352.361 498.17 352.361 497.05C352.361 495.91 352.131 494.93 351.671 494.11C351.211 493.27 350.571 492.62 349.751 492.16C348.951 491.7 348.041 491.47 347.021 491.47C346.001 491.47 345.091 491.7 344.291 492.16C343.491 492.62 342.851 493.27 342.371 494.11C341.891 494.93 341.651 495.91 341.651 497.05C341.651 498.17 341.891 499.16 342.371 500.02C342.851 500.86 343.491 501.51 344.291 501.97C345.091 502.43 346.001 502.66 347.021 502.66ZM358.354 505V489.1H361.234V505H358.354ZM359.794 486.04C359.234 486.04 358.764 485.86 358.384 485.5C358.024 485.14 357.844 484.7 357.844 484.18C357.844 483.64 358.024 483.19 358.384 482.83C358.764 482.47 359.234 482.29 359.794 482.29C360.354 482.29 360.814 482.47 361.174 482.83C361.554 483.17 361.744 483.6 361.744 484.12C361.744 484.66 361.564 485.12 361.204 485.5C360.844 485.86 360.374 486.04 359.794 486.04ZM374.323 488.95C375.623 488.95 376.763 489.2 377.743 489.7C378.743 490.2 379.523 490.96 380.083 491.98C380.643 493 380.923 494.29 380.923 495.85V505H378.043V496.18C378.043 494.64 377.663 493.48 376.903 492.7C376.163 491.92 375.113 491.53 373.753 491.53C372.733 491.53 371.843 491.73 371.083 492.13C370.323 492.53 369.733 493.12 369.313 493.9C368.913 494.68 368.713 495.65 368.713 496.81V505H365.833V489.1H368.593V493.39L368.143 492.25C368.663 491.21 369.463 490.4 370.543 489.82C371.623 489.24 372.883 488.95 374.323 488.95ZM401.629 505.24C398.869 505.24 396.699 504.45 395.119 502.87C393.539 501.29 392.749 498.98 392.749 495.94V484H395.749V495.82C395.749 498.16 396.259 499.87 397.279 500.95C398.319 502.03 399.779 502.57 401.659 502.57C403.559 502.57 405.019 502.03 406.039 500.95C407.079 499.87 407.599 498.16 407.599 495.82V484H410.509V495.94C410.509 498.98 409.719 501.29 408.139 502.87C406.579 504.45 404.409 505.24 401.629 505.24ZM419.9 505.18C418.58 505.18 417.32 505 416.12 504.64C414.94 504.28 414.01 503.84 413.33 503.32L414.53 501.04C415.21 501.5 416.05 501.89 417.05 502.21C418.05 502.53 419.07 502.69 420.11 502.69C421.45 502.69 422.41 502.5 422.99 502.12C423.59 501.74 423.89 501.21 423.89 500.53C423.89 500.03 423.71 499.64 423.35 499.36C422.99 499.08 422.51 498.87 421.91 498.73C421.33 498.59 420.68 498.47 419.96 498.37C419.24 498.25 418.52 498.11 417.8 497.95C417.08 497.77 416.42 497.53 415.82 497.23C415.22 496.91 414.74 496.48 414.38 495.94C414.02 495.38 413.84 494.64 413.84 493.72C413.84 492.76 414.11 491.92 414.65 491.2C415.19 490.48 415.95 489.93 416.93 489.55C417.93 489.15 419.11 488.95 420.47 488.95C421.51 488.95 422.56 489.08 423.62 489.34C424.7 489.58 425.58 489.93 426.26 490.39L425.03 492.67C424.31 492.19 423.56 491.86 422.78 491.68C422 491.5 421.22 491.41 420.44 491.41C419.18 491.41 418.24 491.62 417.62 492.04C417 492.44 416.69 492.96 416.69 493.6C416.69 494.14 416.87 494.56 417.23 494.86C417.61 495.14 418.09 495.36 418.67 495.52C419.27 495.68 419.93 495.82 420.65 495.94C421.37 496.04 422.09 496.18 422.81 496.36C423.53 496.52 424.18 496.75 424.76 497.05C425.36 497.35 425.84 497.77 426.2 498.31C426.58 498.85 426.77 499.57 426.77 500.47C426.77 501.43 426.49 502.26 425.93 502.96C425.37 503.66 424.58 504.21 423.56 504.61C422.54 504.99 421.32 505.18 419.9 505.18ZM436.626 505V489.1H439.506V505H436.626ZM438.066 486.04C437.506 486.04 437.036 485.86 436.656 485.5C436.296 485.14 436.116 484.7 436.116 484.18C436.116 483.64 436.296 483.19 436.656 482.83C437.036 482.47 437.506 482.29 438.066 482.29C438.626 482.29 439.086 482.47 439.446 482.83C439.826 483.17 440.016 483.6 440.016 484.12C440.016 484.66 439.836 485.12 439.476 485.5C439.116 485.86 438.646 486.04 438.066 486.04ZM452.595 488.95C453.895 488.95 455.035 489.2 456.015 489.7C457.015 490.2 457.795 490.96 458.355 491.98C458.915 493 459.195 494.29 459.195 495.85V505H456.315V496.18C456.315 494.64 455.935 493.48 455.175 492.7C454.435 491.92 453.385 491.53 452.025 491.53C451.005 491.53 450.115 491.73 449.355 492.13C448.595 492.53 448.005 493.12 447.585 493.9C447.185 494.68 446.985 495.65 446.985 496.81V505H444.105V489.1H446.865V493.39L446.415 492.25C446.935 491.21 447.735 490.4 448.815 489.82C449.895 489.24 451.155 488.95 452.595 488.95ZM471.201 505V487.69C471.201 486.13 471.651 484.89 472.551 483.97C473.471 483.03 474.771 482.56 476.451 482.56C477.071 482.56 477.661 482.64 478.221 482.8C478.801 482.94 479.291 483.17 479.691 483.49L478.821 485.68C478.521 485.44 478.181 485.26 477.801 485.14C477.421 485 477.021 484.93 476.601 484.93C475.761 484.93 475.121 485.17 474.681 485.65C474.241 486.11 474.021 486.8 474.021 487.72V489.85L474.081 491.17V505H471.201ZM468.501 491.47V489.1H478.641V491.47H468.501ZM490.034 505V501.64L489.884 501.01V495.28C489.884 494.06 489.524 493.12 488.804 492.46C488.104 491.78 487.044 491.44 485.624 491.44C484.684 491.44 483.764 491.6 482.864 491.92C481.964 492.22 481.204 492.63 480.584 493.15L479.384 490.99C480.204 490.33 481.184 489.83 482.324 489.49C483.484 489.13 484.694 488.95 485.954 488.95C488.134 488.95 489.814 489.48 490.994 490.54C492.174 491.6 492.764 493.22 492.764 495.4V505H490.034ZM484.814 505.18C483.634 505.18 482.594 504.98 481.694 504.58C480.814 504.18 480.134 503.63 479.654 502.93C479.174 502.21 478.934 501.4 478.934 500.5C478.934 499.64 479.134 498.86 479.534 498.16C479.954 497.46 480.624 496.9 481.544 496.48C482.484 496.06 483.744 495.85 485.324 495.85H490.364V497.92H485.444C484.004 497.92 483.034 498.16 482.534 498.64C482.034 499.12 481.784 499.7 481.784 500.38C481.784 501.16 482.094 501.79 482.714 502.27C483.334 502.73 484.194 502.96 485.294 502.96C486.374 502.96 487.314 502.72 488.114 502.24C488.934 501.76 489.524 501.06 489.884 500.14L490.454 502.12C490.074 503.06 489.404 503.81 488.444 504.37C487.484 504.91 486.274 505.18 484.814 505.18ZM497.194 505V489.1H500.074V505H497.194ZM498.634 486.04C498.074 486.04 497.604 485.86 497.224 485.5C496.864 485.14 496.684 484.7 496.684 484.18C496.684 483.64 496.864 483.19 497.224 482.83C497.604 482.47 498.074 482.29 498.634 482.29C499.194 482.29 499.654 482.47 500.014 482.83C500.394 483.17 500.584 483.6 500.584 484.12C500.584 484.66 500.404 485.12 500.044 485.5C499.684 485.86 499.214 486.04 498.634 486.04ZM510.133 505.18C508.533 505.18 507.293 504.75 506.413 503.89C505.533 503.03 505.093 501.8 505.093 500.2V485.62H507.973V500.08C507.973 500.94 508.183 501.6 508.603 502.06C509.043 502.52 509.663 502.75 510.463 502.75C511.363 502.75 512.113 502.5 512.713 502L513.613 504.07C513.173 504.45 512.643 504.73 512.023 504.91C511.423 505.09 510.793 505.18 510.133 505.18ZM502.393 491.47V489.1H512.533V491.47H502.393ZM524.685 488.95C525.985 488.95 527.125 489.2 528.105 489.7C529.105 490.2 529.885 490.96 530.445 491.98C531.005 493 531.285 494.29 531.285 495.85V505H528.405V496.18C528.405 494.64 528.025 493.48 527.265 492.7C526.525 491.92 525.475 491.53 524.115 491.53C523.095 491.53 522.205 491.73 521.445 492.13C520.685 492.53 520.095 493.12 519.675 493.9C519.275 494.68 519.075 495.65 519.075 496.81V505H516.195V482.74H519.075V493.39L518.505 492.25C519.025 491.21 519.825 490.4 520.905 489.82C521.985 489.24 523.245 488.95 524.685 488.95Z" fill="white"/>
</svg>
